<mxfile host="app.diagrams.net" modified="2022-08-20T02:39:21.786Z" agent="5.0 (X11; CrOS x86_64 14909.100.0) AppleWebKit/537.36 (KHTML, like Gecko) Chrome/104.0.0.0 Safari/537.36" etag="GEWxyj1yUP4CYuzN544i" version="20.2.5" type="github">
  <diagram id="Zk_9r5JQN1q4R0DaMTSa" name="Page-1">
    <mxGraphModel dx="1038" dy="619" grid="1" gridSize="10" guides="1" tooltips="1" connect="1" arrows="1" fold="1" page="1" pageScale="1" pageWidth="827" pageHeight="1169" math="0" shadow="0">
      <root>
        <mxCell id="0" />
        <mxCell id="1" parent="0" />
        <mxCell id="GfLxlEOh-HePHIYTMGW_-10" value="" style="rounded=1;whiteSpace=wrap;html=1;rotation=90;shadow=0;glass=0;sketch=0;gradientDirection=east;fontColor=none;noLabel=1;fontSize=10;" vertex="1" parent="1">
          <mxGeometry x="-325.18" y="615.21" width="1492.07" height="351.66" as="geometry" />
        </mxCell>
        <mxCell id="GfLxlEOh-HePHIYTMGW_-25" value="&lt;h1 style=&quot;&quot;&gt;~Hello~&lt;/h1&gt;&lt;div style=&quot;&quot;&gt;&lt;br&gt;&lt;/div&gt;&lt;p style=&quot;&quot;&gt;I&#39;m a Science Computer freshman at the Brazilian University of Vila Velha. I&#39;m still learning how to build a website, and this is my first attempt to create a web portfolio. Here we go...&lt;/p&gt;" style="text;html=1;spacing=5;spacingTop=-20;whiteSpace=wrap;overflow=hidden;rounded=0;opacity=95;fontFamily=Times New Roman;align=center;fontColor=default;" vertex="1" parent="1">
          <mxGeometry x="284" y="240" width="260" height="140" as="geometry" />
        </mxCell>
        <mxCell id="GfLxlEOh-HePHIYTMGW_-26" value="&lt;h4&gt;Learning is an endless process.&lt;/h4&gt;" style="text;html=1;strokeColor=none;fillColor=none;align=center;verticalAlign=middle;whiteSpace=wrap;rounded=0;fontFamily=Times New Roman;opacity=95;fontColor=default;" vertex="1" parent="1">
          <mxGeometry x="326" y="280" width="176" height="30" as="geometry" />
        </mxCell>
        <mxCell id="GfLxlEOh-HePHIYTMGW_-28" value="" style="rounded=1;whiteSpace=wrap;html=1;shadow=0;glass=0;sketch=0;fontFamily=Times New Roman;fontColor=#000000;strokeColor=default;strokeWidth=1;fillColor=none;gradientColor=#28169C;gradientDirection=east;opacity=95;" vertex="1" parent="1">
          <mxGeometry x="358.76" y="80" width="120" height="120" as="geometry" />
        </mxCell>
        <mxCell id="GfLxlEOh-HePHIYTMGW_-29" value="Photo" style="text;html=1;strokeColor=none;fillColor=none;align=center;verticalAlign=middle;whiteSpace=wrap;rounded=0;shadow=0;glass=0;sketch=0;fontFamily=Times New Roman;fontColor=default;opacity=95;" vertex="1" parent="1">
          <mxGeometry x="388.76" y="140" width="60" height="30" as="geometry" />
        </mxCell>
        <mxCell id="GfLxlEOh-HePHIYTMGW_-31" value="&lt;h3 style=&quot;&quot;&gt;About Me&lt;/h3&gt;&lt;p style=&quot;&quot;&gt;My name is Raquel Rigoni de Brito Costa. I was born and raised in Brazil. When I was 10 years old, I moved to Vancouver - BC, where I lived until 18. I graduated from Windermere Secondary School in 2019 and enrolled in Psychology at LusÃ³fona University in Lisbon - Portugal in 2021. And now, I&#39;m studying Computer Science at the University of Vila Velha in Brazil. It has been a wild ride haha.&amp;nbsp;&lt;br&gt;&lt;/p&gt;&lt;p&gt;I have a great interest in science and technology development, specifically the advances in outer space technology.&amp;nbsp;Outside of work I enjoy playing video games, designing web/app layouts, and listening to podcasts about astronomy.&lt;br&gt;&lt;/p&gt;&lt;div&gt;&lt;br&gt;&lt;/div&gt;" style="text;html=1;strokeColor=none;fillColor=none;spacing=5;spacingTop=-20;whiteSpace=wrap;overflow=hidden;rounded=0;shadow=0;glass=0;sketch=0;fontFamily=Times New Roman;fontColor=default;opacity=95;align=left;" vertex="1" parent="1">
          <mxGeometry x="290" y="480" width="260" height="240" as="geometry" />
        </mxCell>
        <mxCell id="GfLxlEOh-HePHIYTMGW_-32" value="Programming Languages:" style="text;strokeColor=none;fillColor=none;align=left;verticalAlign=middle;spacingLeft=4;spacingRight=4;overflow=hidden;points=[[0,0.5],[1,0.5]];portConstraint=eastwest;rotatable=0;shadow=0;glass=0;sketch=0;fontFamily=Times New Roman;fontColor=default;opacity=95;fontStyle=1;fontSize=13;" vertex="1" parent="1">
          <mxGeometry x="290" y="735" width="160" height="30" as="geometry" />
        </mxCell>
        <mxCell id="GfLxlEOh-HePHIYTMGW_-33" value="Java Script" style="text;strokeColor=none;fillColor=none;align=left;verticalAlign=middle;spacingLeft=4;spacingRight=4;overflow=hidden;points=[[0,0.5],[1,0.5]];portConstraint=eastwest;rotatable=0;shadow=0;glass=0;sketch=0;fontFamily=Times New Roman;fontSize=13;fontColor=default;opacity=95;" vertex="1" parent="1">
          <mxGeometry x="308.76" y="765" width="80" height="30" as="geometry" />
        </mxCell>
        <mxCell id="GfLxlEOh-HePHIYTMGW_-34" value="Python" style="text;strokeColor=none;fillColor=none;align=left;verticalAlign=middle;spacingLeft=4;spacingRight=4;overflow=hidden;points=[[0,0.5],[1,0.5]];portConstraint=eastwest;rotatable=0;shadow=0;glass=0;sketch=0;fontFamily=Times New Roman;fontSize=13;fontColor=default;opacity=95;" vertex="1" parent="1">
          <mxGeometry x="308.76" y="790" width="80" height="30" as="geometry" />
        </mxCell>
        <mxCell id="GfLxlEOh-HePHIYTMGW_-35" value="HTML + CSS" style="text;strokeColor=none;fillColor=none;align=left;verticalAlign=middle;spacingLeft=4;spacingRight=4;overflow=hidden;points=[[0,0.5],[1,0.5]];portConstraint=eastwest;rotatable=0;shadow=0;glass=0;sketch=0;fontFamily=Times New Roman;fontSize=13;fontColor=default;opacity=95;" vertex="1" parent="1">
          <mxGeometry x="428.76" y="760" width="96" height="30" as="geometry" />
        </mxCell>
        <mxCell id="GfLxlEOh-HePHIYTMGW_-36" value="SQL" style="text;strokeColor=none;fillColor=none;align=left;verticalAlign=middle;spacingLeft=4;spacingRight=4;overflow=hidden;points=[[0,0.5],[1,0.5]];portConstraint=eastwest;rotatable=0;shadow=0;glass=0;sketch=0;fontFamily=Times New Roman;fontSize=13;fontColor=default;opacity=95;" vertex="1" parent="1">
          <mxGeometry x="428.76" y="790" width="80" height="30" as="geometry" />
        </mxCell>
        <mxCell id="GfLxlEOh-HePHIYTMGW_-39" value="" style="shape=waypoint;sketch=0;fillStyle=solid;size=6;pointerEvents=1;points=[];fillColor=none;resizable=0;rotatable=0;perimeter=centerPerimeter;snapToPoint=1;shadow=0;glass=0;fontFamily=Times New Roman;fontSize=13;fontColor=default;strokeColor=default;strokeWidth=1;opacity=95;" vertex="1" parent="1">
          <mxGeometry x="400.86" y="755" width="40" height="40" as="geometry" />
        </mxCell>
        <mxCell id="GfLxlEOh-HePHIYTMGW_-40" value="" style="shape=waypoint;sketch=0;fillStyle=solid;size=6;pointerEvents=1;points=[];fillColor=none;resizable=0;rotatable=0;perimeter=centerPerimeter;snapToPoint=1;shadow=0;glass=0;fontFamily=Times New Roman;fontSize=13;fontColor=default;strokeColor=default;strokeWidth=1;opacity=95;" vertex="1" parent="1">
          <mxGeometry x="400.86" y="785" width="40" height="40" as="geometry" />
        </mxCell>
        <mxCell id="GfLxlEOh-HePHIYTMGW_-41" value="" style="shape=waypoint;sketch=0;fillStyle=solid;size=6;pointerEvents=1;points=[];fillColor=none;resizable=0;rotatable=0;perimeter=centerPerimeter;snapToPoint=1;shadow=0;glass=0;fontFamily=Times New Roman;fontSize=13;fontColor=default;strokeColor=default;strokeWidth=1;opacity=95;" vertex="1" parent="1">
          <mxGeometry x="279" y="785" width="40" height="40" as="geometry" />
        </mxCell>
        <mxCell id="GfLxlEOh-HePHIYTMGW_-44" value="" style="shape=waypoint;sketch=0;fillStyle=solid;size=6;pointerEvents=1;points=[];fillColor=none;resizable=0;rotatable=0;perimeter=centerPerimeter;snapToPoint=1;shadow=0;glass=0;fontFamily=Times New Roman;fontSize=13;fontColor=default;strokeColor=default;strokeWidth=1;opacity=95;" vertex="1" parent="1">
          <mxGeometry x="279" y="760" width="40" height="40" as="geometry" />
        </mxCell>
        <mxCell id="GfLxlEOh-HePHIYTMGW_-45" value="" style="rounded=1;whiteSpace=wrap;html=1;shadow=0;glass=0;sketch=0;fontFamily=Times New Roman;fontSize=13;fontColor=default;strokeColor=default;strokeWidth=1;fillColor=none;gradientColor=#28169C;gradientDirection=east;opacity=95;" vertex="1" parent="1">
          <mxGeometry x="290" y="410" width="70" height="30" as="geometry" />
        </mxCell>
        <mxCell id="GfLxlEOh-HePHIYTMGW_-46" value="" style="rounded=1;whiteSpace=wrap;html=1;shadow=0;glass=0;sketch=0;fontFamily=Times New Roman;fontSize=13;fontColor=default;strokeColor=default;strokeWidth=1;fillColor=none;gradientColor=#28169C;gradientDirection=east;opacity=95;" vertex="1" parent="1">
          <mxGeometry x="385" y="410" width="70" height="30" as="geometry" />
        </mxCell>
        <mxCell id="GfLxlEOh-HePHIYTMGW_-47" value="" style="rounded=1;whiteSpace=wrap;html=1;shadow=0;glass=0;sketch=0;fontFamily=Times New Roman;fontSize=13;fontColor=default;strokeColor=default;strokeWidth=1;fillColor=none;gradientColor=#28169C;gradientDirection=east;opacity=95;" vertex="1" parent="1">
          <mxGeometry x="480" y="410" width="70" height="30" as="geometry" />
        </mxCell>
        <UserObject label="Linkedin" link="https://www.draw.io" id="GfLxlEOh-HePHIYTMGW_-48">
          <mxCell style="text;html=1;strokeColor=none;fillColor=none;whiteSpace=wrap;align=center;verticalAlign=middle;fontColor=#0000EE;fontStyle=4;shadow=0;glass=0;sketch=0;fontFamily=Times New Roman;fontSize=12;opacity=95;" vertex="1" parent="1">
            <mxGeometry x="295" y="405" width="60" height="40" as="geometry" />
          </mxCell>
        </UserObject>
        <UserObject label="Email" link="https://www.draw.io" id="GfLxlEOh-HePHIYTMGW_-49">
          <mxCell style="text;html=1;strokeColor=none;fillColor=none;whiteSpace=wrap;align=center;verticalAlign=middle;fontColor=#0000EE;fontStyle=4;shadow=0;glass=0;sketch=0;fontFamily=Times New Roman;fontSize=12;opacity=95;" vertex="1" parent="1">
            <mxGeometry x="388.76" y="405" width="60" height="40" as="geometry" />
          </mxCell>
        </UserObject>
        <UserObject label="Github" link="https://www.draw.io" id="GfLxlEOh-HePHIYTMGW_-50">
          <mxCell style="text;html=1;strokeColor=none;fillColor=none;whiteSpace=wrap;align=center;verticalAlign=middle;fontColor=#0000EE;fontStyle=4;shadow=0;glass=0;sketch=0;fontFamily=Times New Roman;fontSize=12;opacity=95;" vertex="1" parent="1">
            <mxGeometry x="485" y="405" width="60" height="40" as="geometry" />
          </mxCell>
        </UserObject>
        <mxCell id="GfLxlEOh-HePHIYTMGW_-51" value="" style="shape=actor;whiteSpace=wrap;html=1;shadow=0;glass=0;sketch=0;fontFamily=Times New Roman;fontSize=12;fontColor=default;strokeColor=default;strokeWidth=1;fillColor=none;gradientColor=#28169C;gradientDirection=east;opacity=95;" vertex="1" parent="1">
          <mxGeometry x="398.76" y="110" width="40" height="60" as="geometry" />
        </mxCell>
        <mxCell id="GfLxlEOh-HePHIYTMGW_-52" value="&lt;h3&gt;Experiences&lt;/h3&gt;" style="text;html=1;strokeColor=none;fillColor=none;spacing=5;spacingTop=-20;whiteSpace=wrap;overflow=hidden;rounded=0;shadow=0;glass=0;sketch=0;fontFamily=Times New Roman;fontSize=12;fontColor=default;opacity=95;" vertex="1" parent="1">
          <mxGeometry x="290" y="840" width="270" height="30" as="geometry" />
        </mxCell>
        <mxCell id="GfLxlEOh-HePHIYTMGW_-53" value="" style="rounded=1;whiteSpace=wrap;html=1;shadow=0;glass=0;sketch=0;fontFamily=Times New Roman;fontSize=12;fontColor=default;strokeColor=default;strokeWidth=1;fillColor=none;gradientColor=#28169C;gradientDirection=east;opacity=95;" vertex="1" parent="1">
          <mxGeometry x="295" y="1070" width="90" height="90" as="geometry" />
        </mxCell>
        <mxCell id="GfLxlEOh-HePHIYTMGW_-54" value="" style="rounded=1;whiteSpace=wrap;html=1;shadow=0;glass=0;sketch=0;fontFamily=Times New Roman;fontSize=12;fontColor=default;strokeColor=default;strokeWidth=1;fillColor=none;gradientColor=#28169C;gradientDirection=east;opacity=95;" vertex="1" parent="1">
          <mxGeometry x="404" y="1050" width="90" height="90" as="geometry" />
        </mxCell>
        <mxCell id="GfLxlEOh-HePHIYTMGW_-55" value="" style="rounded=1;whiteSpace=wrap;html=1;shadow=0;glass=0;sketch=0;fontFamily=Times New Roman;fontSize=12;fontColor=default;strokeColor=default;strokeWidth=1;fillColor=none;gradientColor=#28169C;gradientDirection=east;opacity=95;" vertex="1" parent="1">
          <mxGeometry x="295" y="1180" width="90" height="90" as="geometry" />
        </mxCell>
        <mxCell id="GfLxlEOh-HePHIYTMGW_-56" value="" style="rounded=1;whiteSpace=wrap;html=1;shadow=0;glass=0;sketch=0;fontFamily=Times New Roman;fontSize=12;fontColor=default;strokeColor=default;strokeWidth=1;fillColor=none;gradientColor=#28169C;gradientDirection=east;opacity=95;" vertex="1" parent="1">
          <mxGeometry x="404" y="1160" width="90" height="90" as="geometry" />
        </mxCell>
        <mxCell id="GfLxlEOh-HePHIYTMGW_-66" value="&lt;h3&gt;Projects I worked on:&lt;/h3&gt;" style="text;html=1;strokeColor=none;fillColor=none;align=center;verticalAlign=middle;whiteSpace=wrap;rounded=0;shadow=0;glass=0;sketch=0;fontFamily=Times New Roman;fontSize=12;fontColor=default;opacity=95;" vertex="1" parent="1">
          <mxGeometry x="284" y="990" width="150" height="30" as="geometry" />
        </mxCell>
        <mxCell id="GfLxlEOh-HePHIYTMGW_-67" value="Open page" style="text;strokeColor=none;fillColor=none;align=left;verticalAlign=top;spacingLeft=4;spacingRight=4;overflow=hidden;rotatable=0;points=[[0,0.5],[1,0.5]];portConstraint=eastwest;shadow=0;glass=0;sketch=0;fontFamily=Times New Roman;fontSize=12;fontColor=default;opacity=95;html=0;" vertex="1" parent="1">
          <mxGeometry x="306.88" y="1102" width="66.24" height="26" as="geometry" />
        </mxCell>
        <mxCell id="GfLxlEOh-HePHIYTMGW_-68" value="Open page" style="text;strokeColor=none;fillColor=none;align=left;verticalAlign=top;spacingLeft=4;spacingRight=4;overflow=hidden;rotatable=0;points=[[0,0.5],[1,0.5]];portConstraint=eastwest;shadow=0;glass=0;sketch=0;fontFamily=Times New Roman;fontSize=12;fontColor=default;opacity=95;html=0;" vertex="1" parent="1">
          <mxGeometry x="415.88" y="1192" width="66.24" height="26" as="geometry" />
        </mxCell>
        <mxCell id="GfLxlEOh-HePHIYTMGW_-69" value="Open page" style="text;strokeColor=none;fillColor=none;align=left;verticalAlign=top;spacingLeft=4;spacingRight=4;overflow=hidden;rotatable=0;points=[[0,0.5],[1,0.5]];portConstraint=eastwest;shadow=0;glass=0;sketch=0;fontFamily=Times New Roman;fontSize=12;fontColor=default;opacity=95;html=0;" vertex="1" parent="1">
          <mxGeometry x="306.88" y="1212" width="66.24" height="26" as="geometry" />
        </mxCell>
        <mxCell id="GfLxlEOh-HePHIYTMGW_-70" value="Open page" style="text;strokeColor=none;fillColor=none;align=left;verticalAlign=top;spacingLeft=4;spacingRight=4;overflow=hidden;rotatable=0;points=[[0,0.5],[1,0.5]];portConstraint=eastwest;shadow=0;glass=0;sketch=0;fontFamily=Times New Roman;fontSize=12;fontColor=default;opacity=95;html=0;" vertex="1" parent="1">
          <mxGeometry x="415.76" y="1082" width="66.24" height="26" as="geometry" />
        </mxCell>
        <mxCell id="GfLxlEOh-HePHIYTMGW_-71" value="Built and designed by Raquel Rigoni" style="text;html=1;strokeColor=none;fillColor=none;align=center;verticalAlign=middle;whiteSpace=wrap;rounded=0;shadow=0;glass=0;sketch=0;fontFamily=Times New Roman;fontSize=10;fontColor=default;opacity=95;" vertex="1" parent="1">
          <mxGeometry x="324" y="1490" width="180" height="20" as="geometry" />
        </mxCell>
        <mxCell id="GfLxlEOh-HePHIYTMGW_-72" value="All rights reserved @" style="text;html=1;strokeColor=none;fillColor=none;align=center;verticalAlign=middle;whiteSpace=wrap;rounded=0;shadow=0;glass=0;sketch=0;fontFamily=Times New Roman;fontSize=9;fontColor=default;opacity=95;" vertex="1" parent="1">
          <mxGeometry x="365" y="1510" width="110" height="20" as="geometry" />
        </mxCell>
        <mxCell id="GfLxlEOh-HePHIYTMGW_-73" value="" style="line;strokeWidth=3;html=1;shadow=0;glass=0;sketch=0;fontFamily=Times New Roman;fontSize=10;fontColor=default;fillColor=none;gradientColor=#28169C;gradientDirection=east;opacity=95;" vertex="1" parent="1">
          <mxGeometry x="296" y="870" width="30" height="10" as="geometry" />
        </mxCell>
        <mxCell id="GfLxlEOh-HePHIYTMGW_-74" value="" style="line;strokeWidth=1;html=1;shadow=0;glass=0;sketch=0;fontFamily=Times New Roman;fontSize=10;fontColor=default;fillColor=none;gradientColor=#28169C;gradientDirection=east;opacity=95;" vertex="1" parent="1">
          <mxGeometry x="335" y="870" width="30" height="10" as="geometry" />
        </mxCell>
        <mxCell id="GfLxlEOh-HePHIYTMGW_-75" value="" style="line;strokeWidth=1;html=1;shadow=0;glass=0;sketch=0;fontFamily=Times New Roman;fontSize=10;fontColor=default;fillColor=none;gradientColor=#28169C;gradientDirection=east;opacity=95;" vertex="1" parent="1">
          <mxGeometry x="374" y="870" width="30" height="10" as="geometry" />
        </mxCell>
        <mxCell id="GfLxlEOh-HePHIYTMGW_-76" value="" style="line;strokeWidth=1;html=1;shadow=0;glass=0;sketch=0;fontFamily=Times New Roman;fontSize=10;fontColor=default;fillColor=none;gradientColor=#28169C;gradientDirection=east;opacity=95;" vertex="1" parent="1">
          <mxGeometry x="413" y="870" width="30" height="10" as="geometry" />
        </mxCell>
        <mxCell id="GfLxlEOh-HePHIYTMGW_-77" value="" style="line;strokeWidth=1;html=1;shadow=0;glass=0;sketch=0;fontFamily=Times New Roman;fontSize=10;fontColor=default;fillColor=none;gradientColor=#28169C;gradientDirection=east;opacity=95;" vertex="1" parent="1">
          <mxGeometry x="452" y="870" width="30" height="10" as="geometry" />
        </mxCell>
        <mxCell id="GfLxlEOh-HePHIYTMGW_-78" value="" style="line;strokeWidth=1;html=1;shadow=0;glass=0;sketch=0;fontFamily=Times New Roman;fontSize=10;fontColor=default;fillColor=none;gradientColor=#28169C;gradientDirection=east;opacity=95;" vertex="1" parent="1">
          <mxGeometry x="494" y="870" width="30" height="10" as="geometry" />
        </mxCell>
        <mxCell id="GfLxlEOh-HePHIYTMGW_-79" value="&lt;h3&gt;Software Engeneer @ NASA&lt;/h3&gt;&lt;p&gt;&lt;br&gt;&lt;/p&gt;" style="text;html=1;strokeColor=none;fillColor=none;spacing=5;spacingTop=-20;whiteSpace=wrap;overflow=hidden;rounded=0;shadow=0;glass=0;sketch=0;fontFamily=Times New Roman;fontSize=10;fontColor=default;opacity=95;" vertex="1" parent="1">
          <mxGeometry x="296.88" y="880" width="190" height="20" as="geometry" />
        </mxCell>
        <mxCell id="GfLxlEOh-HePHIYTMGW_-81" value="July 2022 - Present" style="text;html=1;strokeColor=none;fillColor=none;align=center;verticalAlign=middle;whiteSpace=wrap;rounded=0;shadow=0;glass=0;sketch=0;fontFamily=Times New Roman;fontSize=9;fontColor=default;opacity=95;" vertex="1" parent="1">
          <mxGeometry x="295" y="900" width="84" height="10" as="geometry" />
        </mxCell>
        <mxCell id="GfLxlEOh-HePHIYTMGW_-82" value="&gt;Â  Â Worked on something very useful." style="text;strokeColor=none;fillColor=none;align=left;verticalAlign=middle;spacingLeft=4;spacingRight=4;overflow=hidden;points=[[0,0.5],[1,0.5]];portConstraint=eastwest;rotatable=0;shadow=0;glass=0;sketch=0;fontFamily=Times New Roman;fontSize=9;fontColor=default;opacity=95;html=0;" vertex="1" parent="1">
          <mxGeometry x="310" y="910" width="201.76" height="20" as="geometry" />
        </mxCell>
        <mxCell id="GfLxlEOh-HePHIYTMGW_-86" value="&gt;Â  Â Worked on something very useful." style="text;strokeColor=none;fillColor=none;align=left;verticalAlign=middle;spacingLeft=4;spacingRight=4;overflow=hidden;points=[[0,0.5],[1,0.5]];portConstraint=eastwest;rotatable=0;shadow=0;glass=0;sketch=0;fontFamily=Times New Roman;fontSize=9;fontColor=default;opacity=95;html=0;" vertex="1" parent="1">
          <mxGeometry x="310" y="930" width="201.76" height="20" as="geometry" />
        </mxCell>
        <mxCell id="GfLxlEOh-HePHIYTMGW_-87" value="&gt;Â  Â Worked on something very useful." style="text;strokeColor=none;fillColor=none;align=left;verticalAlign=middle;spacingLeft=4;spacingRight=4;overflow=hidden;points=[[0,0.5],[1,0.5]];portConstraint=eastwest;rotatable=0;shadow=0;glass=0;sketch=0;fontFamily=Times New Roman;fontSize=9;fontColor=default;opacity=95;html=0;" vertex="1" parent="1">
          <mxGeometry x="310" y="950" width="201.76" height="20" as="geometry" />
        </mxCell>
        <mxCell id="GfLxlEOh-HePHIYTMGW_-88" value="Note: This boxes are supposed to be links to open the homepage of the project listed in each box. Each box is also supposed to &#39;pop-up&#39; every time the mouse runs over it." style="text;html=1;strokeColor=none;fillColor=none;align=left;verticalAlign=middle;whiteSpace=wrap;rounded=0;shadow=0;glass=0;sketch=0;fontFamily=Times New Roman;fontSize=8;fontColor=default;opacity=95;" vertex="1" parent="1">
          <mxGeometry x="294" y="1020" width="230" height="30" as="geometry" />
        </mxCell>
      </root>
    </mxGraphModel>
  </diagram>
</mxfile>
